<svg width="46" height="46" viewBox="0 0 46 46" fill="none" xmlns="http://www.w3.org/2000/svg">
<path fill-rule="evenodd" clip-rule="evenodd" d="M22.9999 2.87438C23.3811 2.87438 23.7467 3.02583 24.0163 3.29541C24.2859 3.565 24.4374 3.93063 24.4374 4.31188V38.2168L33.4821 29.1691C33.752 28.8992 34.1181 28.7476 34.4999 28.7476C34.8816 28.7476 35.2477 28.8992 35.5176 29.1691C35.7875 29.4391 35.9392 29.8052 35.9392 30.1869C35.9392 30.5686 35.7875 30.9347 35.5176 31.2046L24.0176 42.7046C23.8841 42.8385 23.7255 42.9447 23.5508 43.0172C23.3762 43.0897 23.1889 43.127 22.9999 43.127C22.8108 43.127 22.6236 43.0897 22.4489 43.0172C22.2743 42.9447 22.1156 42.8385 21.9821 42.7046L10.4821 31.2046C10.3485 31.071 10.2424 30.9123 10.1701 30.7377C10.0978 30.5631 10.0605 30.3759 10.0605 30.1869C10.0605 29.8052 10.2122 29.4391 10.4821 29.1691C10.752 28.8992 11.1181 28.7476 11.4999 28.7476C11.8816 28.7476 12.2477 28.8992 12.5176 29.1691L21.5624 38.2168V4.31188C21.5624 3.93063 21.7138 3.565 21.9834 3.29541C22.253 3.02583 22.6186 2.87438 22.9999 2.87438Z" fill="black"/>
</svg>
