<svg width="46" height="46" viewBox="0 0 46 46" fill="none" xmlns="http://www.w3.org/2000/svg">
<path fill-rule="evenodd" clip-rule="evenodd" d="M22.9999 43.1256C23.3811 43.1256 23.7467 42.9742 24.0163 42.7046C24.2859 42.435 24.4374 42.0694 24.4374 41.6881V7.78324L33.4821 16.8309C33.752 17.1008 34.1181 17.2524 34.4999 17.2524C34.8816 17.2524 35.2477 17.1008 35.5176 16.8309C35.7875 16.5609 35.9392 16.1948 35.9392 15.8131C35.9392 15.4314 35.7875 15.0653 35.5176 14.7954L24.0176 3.29537C23.8841 3.1615 23.7255 3.05529 23.5508 2.98282C23.3762 2.91035 23.1889 2.87305 22.9999 2.87305C22.8108 2.87305 22.6236 2.91035 22.4489 2.98282C22.2743 3.05529 22.1156 3.1615 21.9821 3.29537L10.4821 14.7954C10.3485 14.929 10.2424 15.0877 10.1701 15.2623C10.0978 15.4369 10.0605 15.6241 10.0605 15.8131C10.0605 16.1948 10.2122 16.5609 10.4821 16.8309C10.752 17.1008 11.1181 17.2524 11.4999 17.2524C11.8816 17.2524 12.2477 17.1008 12.5176 16.8309L21.5624 7.78324V41.6881C21.5624 42.0694 21.7138 42.435 21.9834 42.7046C22.253 42.9742 22.6186 43.1256 22.9999 43.1256Z" fill="#EC3237"/>
</svg>
